<svg width="69" height="65" viewBox="0 0 69 65" fill="none" xmlns="http://www.w3.org/2000/svg">
<path d="M29.9 59.8584C31.1938 60.3408 32.5833 59.3379 32.5833 57.8906V9.97852C32.5833 9.44531 32.3917 8.91211 31.9844 8.58203C29.6365 6.60156 24.2458 4.0625 17.25 4.0625C10.4818 4.0625 4.20469 6.16992 1.07812 7.60449C0.407292 7.90918 0 8.62012 0 9.38184V57.6494C0 59.1602 1.53333 60.2139 2.88698 59.7441C6.66042 58.4111 12.638 56.875 17.25 56.875C21.3109 56.875 26.7135 58.6523 29.9 59.8584ZM39.1 59.8584C42.2865 58.6523 47.6891 56.875 51.75 56.875C56.362 56.875 62.3396 58.4111 66.113 59.7441C67.4667 60.2266 69 59.1602 69 57.6494V9.38184C69 8.60742 68.5927 7.90918 67.9219 7.60449C64.7953 6.16992 58.5182 4.0625 51.75 4.0625C44.7542 4.0625 39.3635 6.60156 37.0156 8.58203C36.6203 8.91211 36.4167 9.44531 36.4167 9.97852V57.8906C36.4167 59.3379 37.8182 60.3408 39.1 59.8584Z" fill="#ED3024"/>
</svg>
