<svg width="69" height="65" viewBox="0 0 69 65" fill="none" xmlns="http://www.w3.org/2000/svg">
<path d="M0 12.1875C0 7.70605 3.86777 4.0625 8.625 4.0625H60.375C65.1322 4.0625 69 7.70605 69 12.1875V52.8125C69 57.2939 65.1322 60.9375 60.375 60.9375H8.625C3.86777 60.9375 0 57.2939 0 52.8125V12.1875ZM6.46875 46.7188V50.7812C6.46875 51.8984 7.43906 52.8125 8.625 52.8125H12.9375C14.1234 52.8125 15.0938 51.8984 15.0938 50.7812V46.7188C15.0938 45.6016 14.1234 44.6875 12.9375 44.6875H8.625C7.43906 44.6875 6.46875 45.6016 6.46875 46.7188ZM56.0625 44.6875C54.8766 44.6875 53.9062 45.6016 53.9062 46.7188V50.7812C53.9062 51.8984 54.8766 52.8125 56.0625 52.8125H60.375C61.5609 52.8125 62.5312 51.8984 62.5312 50.7812V46.7188C62.5312 45.6016 61.5609 44.6875 60.375 44.6875H56.0625ZM6.46875 30.4688V34.5312C6.46875 35.6484 7.43906 36.5625 8.625 36.5625H12.9375C14.1234 36.5625 15.0938 35.6484 15.0938 34.5312V30.4688C15.0938 29.3516 14.1234 28.4375 12.9375 28.4375H8.625C7.43906 28.4375 6.46875 29.3516 6.46875 30.4688ZM56.0625 28.4375C54.8766 28.4375 53.9062 29.3516 53.9062 30.4688V34.5312C53.9062 35.6484 54.8766 36.5625 56.0625 36.5625H60.375C61.5609 36.5625 62.5312 35.6484 62.5312 34.5312V30.4688C62.5312 29.3516 61.5609 28.4375 60.375 28.4375H56.0625ZM6.46875 14.2188V18.2812C6.46875 19.3984 7.43906 20.3125 8.625 20.3125H12.9375C14.1234 20.3125 15.0938 19.3984 15.0938 18.2812V14.2188C15.0938 13.1016 14.1234 12.1875 12.9375 12.1875H8.625C7.43906 12.1875 6.46875 13.1016 6.46875 14.2188ZM56.0625 12.1875C54.8766 12.1875 53.9062 13.1016 53.9062 14.2188V18.2812C53.9062 19.3984 54.8766 20.3125 56.0625 20.3125H60.375C61.5609 20.3125 62.5312 19.3984 62.5312 18.2812V14.2188C62.5312 13.1016 61.5609 12.1875 60.375 12.1875H56.0625ZM21.5625 16.25V24.375C21.5625 26.6221 23.4896 28.4375 25.875 28.4375H43.125C45.5104 28.4375 47.4375 26.6221 47.4375 24.375V16.25C47.4375 14.0029 45.5104 12.1875 43.125 12.1875H25.875C23.4896 12.1875 21.5625 14.0029 21.5625 16.25ZM25.875 36.5625C23.4896 36.5625 21.5625 38.3779 21.5625 40.625V48.75C21.5625 50.9971 23.4896 52.8125 25.875 52.8125H43.125C45.5104 52.8125 47.4375 50.9971 47.4375 48.75V40.625C47.4375 38.3779 45.5104 36.5625 43.125 36.5625H25.875Z" fill="#ED3024"/>
</svg>
