<?xml version="1.0" standalone="no"?>
<!DOCTYPE svg PUBLIC "-//W3C//DTD SVG 20010904//EN"
 "http://www.w3.org/TR/2001/REC-SVG-20010904/DTD/svg10.dtd">
<svg version="1.0" xmlns="http://www.w3.org/2000/svg"
 width="512.000000pt" height="512.000000pt" viewBox="0 0 512.000000 512.000000"
 preserveAspectRatio="xMidYMid meet">

<g transform="translate(0.000000,512.000000) scale(0.100000,-0.100000)"
fill="#000000" stroke="none">
<path d="M1435 5114 c-513 -34 -972 -321 -1228 -769 -92 -160 -162 -377 -187
-575 -14 -115 -14 -2305 0 -2420 43 -352 200 -671 447 -911 240 -232 492 -358
843 -421 60 -10 313 -13 1250 -13 1241 0 1212 -1 1405 46 461 113 857 459
1034 904 46 114 85 270 101 395 14 115 14 2305 0 2420 -43 352 -200 671 -447
911 -233 226 -464 344 -813 416 -65 14 -229 16 -1215 18 -627 1 -1162 0 -1190
-1z m2375 -219 c473 -77 875 -422 1030 -883 67 -201 65 -152 65 -1452 0 -1086
-1 -1182 -18 -1270 -67 -358 -272 -666 -572 -865 -155 -102 -328 -171 -505
-200 -142 -23 -2358 -23 -2500 0 -473 77 -875 422 -1030 883 -67 201 -65 152
-65 1452 0 1086 1 1182 18 1270 78 412 342 763 715 949 89 45 254 98 353 115
131 22 2374 22 2509 1z"/>
<path d="M1430 4534 c-245 -39 -397 -111 -553 -263 -121 -117 -201 -249 -254
-418 l-28 -88 0 -1205 0 -1205 28 -88 c110 -351 377 -596 727 -669 96 -19
2324 -19 2420 0 350 73 617 318 727 669 l28 88 0 1205 0 1205 -28 88 c-93 296
-303 524 -579 627 -155 57 -83 54 -1323 56 -627 1 -1151 0 -1165 -2z m2343
-221 c262 -74 456 -263 529 -518 l23 -80 0 -1155 0 -1155 -23 -80 c-73 -254
-266 -443 -529 -518 l-78 -22 -1135 0 -1135 0 -78 22 c-263 75 -456 264 -529
518 l-23 80 0 1155 0 1155 23 80 c83 289 329 499 625 534 39 5 562 8 1162 7
1090 -2 1090 -2 1168 -23z"/>
<path d="M3725 4107 c-110 -28 -201 -125 -226 -240 -35 -164 76 -331 244 -368
212 -46 412 151 368 362 -14 68 -61 150 -104 183 -81 62 -190 86 -282 63z
m157 -225 c65 -65 17 -184 -75 -184 -66 0 -109 43 -109 108 0 93 118 142 184
76z"/>
<path d="M2460 3868 c-307 -21 -584 -146 -811 -365 -263 -255 -400 -577 -400
-943 0 -366 137 -688 400 -943 252 -243 560 -368 911 -368 351 0 659 125 911
368 263 255 400 577 400 943 0 366 -137 688 -400 943 -150 145 -302 238 -494
302 -167 56 -334 76 -517 63z m371 -231 c401 -105 698 -402 807 -806 23 -86
26 -114 26 -271 0 -157 -3 -185 -26 -271 -109 -404 -403 -698 -807 -807 -86
-23 -114 -26 -271 -26 -157 0 -185 3 -271 26 -404 109 -698 403 -807 807 -23
86 -26 114 -26 271 0 157 3 185 26 271 91 336 323 612 625 743 97 42 132 53
241 77 127 28 350 21 483 -14z"/>
<path d="M2430 3301 c-273 -52 -494 -246 -586 -516 -25 -73 -27 -93 -27 -225
0 -132 2 -152 27 -225 49 -143 123 -252 238 -351 69 -59 154 -106 253 -140 73
-25 93 -27 225 -27 132 0 152 2 225 27 239 82 409 252 491 491 25 73 27 93 27
225 0 132 -2 152 -27 225 -82 240 -255 412 -491 490 -63 21 -105 27 -195 30
-63 2 -135 0 -160 -4z m243 -206 c277 -58 471 -336 429 -612 -45 -296 -328
-509 -619 -465 -296 45 -509 328 -465 620 26 169 138 327 290 406 120 62 236
79 365 51z"/>
<path d="M1383 470 c-34 -20 -53 -66 -45 -107 2 -11 17 -34 34 -50 l29 -28
490 -3 c329 -2 502 1 530 8 28 8 46 21 59 43 30 48 26 83 -14 123 l-34 34
-509 0 c-487 0 -509 -1 -540 -20z"/>
<path d="M2654 456 c-40 -40 -44 -75 -14 -123 13 -23 31 -35 61 -43 113 -31
208 37 179 126 -18 54 -52 74 -127 74 -61 0 -67 -2 -99 -34z"/>
</g>
</svg>
