<svg width="69" height="65" viewBox="0 0 69 65" fill="none" xmlns="http://www.w3.org/2000/svg">
<g clip-path="url(#clip0_17_187)">
<path d="M17.7292 9.72461C17.7292 4.35449 21.838 0 26.9052 0C29.337 0 31.6729 1.02832 33.3859 2.84375L34.5 4.02441L35.6141 2.84375C37.3271 1.02832 39.663 0 42.0948 0C47.162 0 51.2708 4.35449 51.2708 9.72461C51.2708 12.3018 50.3005 14.7773 48.5875 16.5928L36.1891 29.7197C35.2547 30.71 33.7333 30.71 32.799 29.7197L20.4125 16.5928C18.6995 14.7773 17.7292 12.3018 17.7292 9.72461ZM68.0656 42.6943C69.6349 44.9541 69.1797 48.1279 67.0474 49.791L51.8818 61.6357C49.0786 63.8193 45.7005 65 42.2146 65H23H3.83333C1.71302 65 0 63.1846 0 60.9375V52.8125C0 50.5654 1.71302 48.75 3.83333 48.75H8.24167L13.6203 44.1797C16.3396 41.8691 19.7177 40.625 23.2036 40.625H32.5833H34.5H42.1667C44.287 40.625 46 42.4404 46 44.6875C46 46.9346 44.287 48.75 42.1667 48.75H34.5H32.5833C31.5292 48.75 30.6667 49.6641 30.6667 50.7812C30.6667 51.8984 31.5292 52.8125 32.5833 52.8125H47.0302L61.3693 41.6152C63.5016 39.9521 66.4964 40.4346 68.0656 42.6943ZM23.1917 48.75H23.0839C23.1198 48.75 23.1557 48.75 23.1917 48.75Z" fill="#ED3024"/>
</g>
<defs>
<clipPath id="clip0_17_187">
<rect width="69" height="65" fill="white"/>
</clipPath>
</defs>
</svg>
