<svg width="69" height="65" viewBox="0 0 69 65" fill="none" xmlns="http://www.w3.org/2000/svg">
<g clip-path="url(#clip0_17_178)">
<path d="M68.976 32.4365C68.976 34.7217 67.1792 36.5117 65.1427 36.5117H61.3094L61.3932 56.8496C61.4172 61.3564 57.9792 65.0127 53.7266 65.0127H15.3453C11.1167 65.0127 7.67865 61.3691 7.67865 56.8877V36.5117H3.83333C1.67708 36.5117 0 34.7344 0 32.4365C0 31.2939 0.359375 30.2783 1.19792 29.3896L31.9125 1.01562C32.751 0.126953 33.7094 0 34.5479 0C35.3865 0 36.3448 0.253906 37.0635 0.888672L67.6583 29.3896C68.6167 30.2783 69.0958 31.2939 68.976 32.4365ZM42.1667 28.4375C42.1667 23.9561 38.7286 20.3125 34.5 20.3125C30.2714 20.3125 26.8333 23.9561 26.8333 28.4375C26.8333 32.9189 30.2714 36.5625 34.5 36.5625C38.7286 36.5625 42.1667 32.9189 42.1667 28.4375ZM30.6667 40.625C25.3719 40.625 21.0833 45.1699 21.0833 50.7812C21.0833 51.8984 21.9458 52.8125 23 52.8125H46C47.0542 52.8125 47.9167 51.8984 47.9167 50.7812C47.9167 45.1699 43.6281 40.625 38.3333 40.625H30.6667Z" fill="#ED3024"/>
</g>
<defs>
<clipPath id="clip0_17_178">
<rect width="69" height="65" fill="white"/>
</clipPath>
</defs>
</svg>
