<svg width="69" height="65" viewBox="0 0 69 65" fill="none" xmlns="http://www.w3.org/2000/svg">
<g clip-path="url(#clip0_17_170)">
<path d="M64.0714 0C61.6071 0 44.3571 4.0625 44.3571 22.3438V36.5625C44.3571 41.0439 48.7775 44.6875 54.2143 44.6875H59.1429V60.9375C59.1429 63.1846 61.3453 65 64.0714 65C66.7975 65 69 63.1846 69 60.9375V44.6875V30.4688V4.0625C69 1.81543 66.7975 0 64.0714 0ZM9.85714 2.03125C9.85714 0.990234 8.91763 0.126953 7.65469 0.0126953C6.39174 -0.101562 5.26741 0.583984 4.99018 1.58691L0.323437 18.8906C0.107812 19.6904 0 20.5029 0 21.3154C0 27.1426 5.40603 31.9287 12.3214 32.4492V60.9375C12.3214 63.1846 14.5239 65 17.25 65C19.9761 65 22.1786 63.1846 22.1786 60.9375V32.4492C29.094 31.9287 34.5 27.1426 34.5 21.3154C34.5 20.5029 34.3922 19.6904 34.1766 18.8906L29.5098 1.58691C29.2326 0.571289 28.0775 -0.101562 26.8299 0.0126953C25.5824 0.126953 24.6429 0.990234 24.6429 2.03125V19.0684C24.6429 19.7539 23.9652 20.3125 23.1335 20.3125C22.348 20.3125 21.7011 19.8174 21.6241 19.1699L19.6989 1.85352C19.5911 0.799805 18.5283 0 17.25 0C15.9717 0 14.9089 0.799805 14.8011 1.85352L12.8913 19.1699C12.8143 19.8174 12.1674 20.3125 11.3819 20.3125C10.5502 20.3125 9.87254 19.7539 9.87254 19.0684V2.03125H9.85714ZM17.2962 21.3281H17.25H17.2038L17.25 21.2393L17.2962 21.3281Z" fill="#ED3024"/>
</g>
<defs>
<clipPath id="clip0_17_170">
<rect width="69" height="65" fill="white"/>
</clipPath>
</defs>
</svg>
