<?xml version="1.0" encoding="UTF-8"?>
<!DOCTYPE svg PUBLIC "-//W3C//DTD SVG 1.1//EN" "http://www.w3.org/Graphics/SVG/1.1/DTD/svg11.dtd">
<svg xmlns="http://www.w3.org/2000/svg" version="1.1" width="200px" height="200px" style="shape-rendering:geometricPrecision; text-rendering:geometricPrecision; image-rendering:optimizeQuality; fill-rule:evenodd; clip-rule:evenodd" xmlns:xlink="http://www.w3.org/1999/xlink">
<g><path style="opacity:0.979" fill="#4ed7de" d="M 98.5,-0.5 C 99.5,-0.5 100.5,-0.5 101.5,-0.5C 109.798,8.29833 118.298,16.965 127,25.5C 127.667,26.5 127.667,27.5 127,28.5C 103.298,52.0347 79.7984,75.7014 56.5,99.5C 37.5,99.5 18.5,99.5 -0.5,99.5C -0.5,99.1667 -0.5,98.8333 -0.5,98.5C 32.8333,65.8333 65.8333,32.8333 98.5,-0.5 Z"/></g>
<g><path style="opacity:0.984" fill="#4ed7de" d="M 170.5,-0.5 C 171.5,-0.5 172.5,-0.5 173.5,-0.5C 181.833,8.5 190.5,17.1667 199.5,25.5C 199.5,26.5 199.5,27.5 199.5,28.5C 175.5,51.8333 151.833,75.5 128.5,99.5C 109.5,99.5 90.5,99.5 71.5,99.5C 104.5,66.1667 137.5,32.8333 170.5,-0.5 Z"/></g>
<g><path style="opacity:1" fill="#11a9c6" d="M -0.5,100.5 C -0.5,100.167 -0.5,99.8333 -0.5,99.5C 18.5,99.5 37.5,99.5 56.5,99.5C 80.2984,123.799 104.298,147.965 128.5,172C 119.298,181.035 110.298,190.202 101.5,199.5C 100.5,199.5 99.5,199.5 98.5,199.5C 65.8333,166.167 32.8333,133.167 -0.5,100.5 Z"/></g>
<g><path style="opacity:1" fill="#11a9c6" d="M 71.5,99.5 C 90.5,99.5 109.5,99.5 128.5,99.5C 151.833,123.5 175.5,147.167 199.5,170.5C 199.5,171.5 199.5,172.5 199.5,173.5C 190.5,181.833 181.833,190.5 173.5,199.5C 172.5,199.5 171.5,199.5 170.5,199.5C 137.5,166.167 104.5,132.833 71.5,99.5 Z"/></g>
</svg>
