<?xml version="1.0" encoding="UTF-8"?>
<!DOCTYPE svg PUBLIC "-//W3C//DTD SVG 1.1//EN" "http://www.w3.org/Graphics/SVG/1.1/DTD/svg11.dtd">
<svg xmlns="http://www.w3.org/2000/svg" version="1.1" width="200px" height="200px" style="shape-rendering:geometricPrecision; text-rendering:geometricPrecision; image-rendering:optimizeQuality; fill-rule:evenodd; clip-rule:evenodd" xmlns:xlink="http://www.w3.org/1999/xlink">
<g><path style="opacity:0.978" fill="#4dd7de" d="M 25.5,-0.5 C 26.8333,-0.5 28.1667,-0.5 29.5,-0.5C 60.7981,31.9649 92.6314,63.9649 125,95.5C 126.085,96.7356 126.918,98.0689 127.5,99.5C 108.424,99.82 89.4238,99.4867 70.5,98.5C 46.8333,75.1667 23.1667,51.8333 -0.5,28.5C -0.5,27.5 -0.5,26.5 -0.5,25.5C 8.5,17.1667 17.1667,8.5 25.5,-0.5 Z"/></g>
<g><path style="opacity:0.979" fill="#4ed7de" d="M 97.5,-0.5 C 98.8333,-0.5 100.167,-0.5 101.5,-0.5C 133.833,32.5 166.5,65.1667 199.5,97.5C 199.5,98.1667 199.5,98.8333 199.5,99.5C 180.833,99.5 162.167,99.5 143.5,99.5C 119.187,75.5197 95.1867,51.1864 71.5,26.5C 80.1605,17.5059 88.8272,8.50594 97.5,-0.5 Z"/></g>
<g><path style="opacity:1" fill="#13a9c6" d="M 70.5,98.5 C 89.4238,99.4867 108.424,99.82 127.5,99.5C 127.631,100.239 127.464,100.906 127,101.5C 93.9166,133.75 61.4166,166.416 29.5,199.5C 28.1667,199.5 26.8333,199.5 25.5,199.5C 17.1667,190.5 8.5,181.833 -0.5,173.5C -0.5,172.5 -0.5,171.5 -0.5,170.5C 23.884,147.117 47.5507,123.117 70.5,98.5 Z"/></g>
<g><path style="opacity:1" fill="#13aac6" d="M 143.5,99.5 C 162.167,99.5 180.833,99.5 199.5,99.5C 199.5,100.167 199.5,100.833 199.5,101.5C 166.5,133.833 133.833,166.5 101.5,199.5C 100.167,199.5 98.8333,199.5 97.5,199.5C 88.5377,190.534 79.871,181.201 71.5,171.5C 95.1877,147.146 119.188,123.146 143.5,99.5 Z"/></g>
</svg>
